<mxfile host="65bd71144e" modified="2020-12-27T15:10:33.478Z" agent="5.0 (Windows NT 10.0; Win64; x64) AppleWebKit/537.36 (KHTML, like Gecko) Code/1.52.1 Chrome/83.0.4103.122 Electron/9.3.5 Safari/537.36" version="13.10.0" etag="sK1byn3LZjMVyR74C5UY" type="embed">
    <diagram id="x8tHhuS_i5Dy6Zt9KJDq" name="第 1 页">
        <mxGraphModel dx="971" dy="750" grid="1" gridSize="10" guides="1" tooltips="1" connect="1" arrows="1" fold="1" page="1" pageScale="1" pageWidth="827" pageHeight="1169" background="#ffffff" math="0" shadow="0">
            <root>
                <mxCell id="0"/>
                <mxCell id="1" parent="0"/>
                <mxCell id="4" value="&lt;pre style=&quot;font-size: 14px&quot;&gt;id7&lt;/pre&gt;" style="rounded=0;whiteSpace=wrap;html=1;strokeColor=#0D0D0D;fillColor=none;fontColor=#0D0D0D;" vertex="1" parent="1">
                    <mxGeometry x="410" y="320" width="50" height="30" as="geometry"/>
                </mxCell>
                <mxCell id="5" value="&lt;pre style=&quot;font-size: 14px&quot;&gt;id8&lt;/pre&gt;" style="rounded=0;whiteSpace=wrap;html=1;strokeColor=#0D0D0D;fillColor=none;fontColor=#0D0D0D;" vertex="1" parent="1">
                    <mxGeometry x="360" y="320" width="50" height="30" as="geometry"/>
                </mxCell>
                <mxCell id="8" value="&lt;pre style=&quot;font-size: 14px&quot;&gt;id1&lt;/pre&gt;" style="rounded=0;whiteSpace=wrap;html=1;strokeColor=#0D0D0D;fillColor=none;fontColor=#0D0D0D;" vertex="1" parent="1">
                    <mxGeometry x="710" y="320" width="50" height="30" as="geometry"/>
                </mxCell>
                <mxCell id="9" value="&lt;pre style=&quot;font-size: 14px&quot;&gt;id2&lt;/pre&gt;" style="rounded=0;whiteSpace=wrap;html=1;strokeColor=#0D0D0D;fillColor=none;fontColor=#0D0D0D;" vertex="1" parent="1">
                    <mxGeometry x="660" y="320" width="50" height="30" as="geometry"/>
                </mxCell>
                <mxCell id="10" value="&lt;pre style=&quot;font-size: 14px&quot;&gt;id3&lt;/pre&gt;" style="rounded=0;whiteSpace=wrap;html=1;strokeColor=#0D0D0D;fillColor=none;fontColor=#0D0D0D;" vertex="1" parent="1">
                    <mxGeometry x="610" y="320" width="50" height="30" as="geometry"/>
                </mxCell>
                <mxCell id="11" value="&lt;pre style=&quot;font-size: 14px&quot;&gt;id4&lt;/pre&gt;" style="rounded=0;whiteSpace=wrap;html=1;strokeColor=#0D0D0D;fillColor=none;fontColor=#0D0D0D;" vertex="1" parent="1">
                    <mxGeometry x="560" y="320" width="50" height="30" as="geometry"/>
                </mxCell>
                <mxCell id="12" value="&lt;pre style=&quot;font-size: 14px&quot;&gt;id5&lt;/pre&gt;" style="rounded=0;whiteSpace=wrap;html=1;strokeColor=#0D0D0D;fillColor=none;fontColor=#0D0D0D;" vertex="1" parent="1">
                    <mxGeometry x="510" y="320" width="50" height="30" as="geometry"/>
                </mxCell>
                <mxCell id="13" value="&lt;pre style=&quot;font-size: 14px&quot;&gt;id6&lt;/pre&gt;" style="rounded=0;whiteSpace=wrap;html=1;strokeColor=#0D0D0D;fillColor=none;fontColor=#0D0D0D;" vertex="1" parent="1">
                    <mxGeometry x="460" y="320" width="50" height="30" as="geometry"/>
                </mxCell>
                <mxCell id="14" value="&lt;pre style=&quot;font-size: 14px&quot;&gt;id12&lt;/pre&gt;" style="rounded=0;whiteSpace=wrap;html=1;strokeColor=#0D0D0D;fillColor=none;fontColor=#0D0D0D;" vertex="1" parent="1">
                    <mxGeometry x="160" y="320" width="50" height="30" as="geometry"/>
                </mxCell>
                <mxCell id="15" value="&lt;pre style=&quot;font-size: 14px&quot;&gt;id11&lt;/pre&gt;" style="rounded=0;whiteSpace=wrap;html=1;strokeColor=#0D0D0D;fillColor=none;fontColor=#0D0D0D;" vertex="1" parent="1">
                    <mxGeometry x="210" y="320" width="50" height="30" as="geometry"/>
                </mxCell>
                <mxCell id="16" value="&lt;pre style=&quot;font-size: 14px&quot;&gt;id10&lt;/pre&gt;" style="rounded=0;whiteSpace=wrap;html=1;strokeColor=#0D0D0D;fillColor=none;fontColor=#0D0D0D;" vertex="1" parent="1">
                    <mxGeometry x="260" y="320" width="50" height="30" as="geometry"/>
                </mxCell>
                <mxCell id="17" value="&lt;pre style=&quot;font-size: 14px&quot;&gt;id9&lt;/pre&gt;" style="rounded=0;whiteSpace=wrap;html=1;strokeColor=#0D0D0D;fillColor=none;fontColor=#0D0D0D;" vertex="1" parent="1">
                    <mxGeometry x="310" y="320" width="50" height="30" as="geometry"/>
                </mxCell>
                <mxCell id="20" value="" style="endArrow=classic;html=1;fontColor=#0D0D0D;strokeColor=#0D0D0D;" edge="1" parent="1">
                    <mxGeometry width="50" height="50" relative="1" as="geometry">
                        <mxPoint x="330" y="370" as="sourcePoint"/>
                        <mxPoint x="600" y="370" as="targetPoint"/>
                    </mxGeometry>
                </mxCell>
                <mxCell id="21" value="Stream: 从左往右追加" style="text;html=1;strokeColor=none;fillColor=none;align=center;verticalAlign=middle;whiteSpace=wrap;rounded=0;fontColor=#0D0D0D;" vertex="1" parent="1">
                    <mxGeometry x="374" y="380" width="166" height="20" as="geometry"/>
                </mxCell>
                <mxCell id="22" value="Redis&amp;nbsp; &amp;nbsp; Key" style="text;html=1;strokeColor=none;fillColor=none;align=center;verticalAlign=middle;whiteSpace=wrap;rounded=0;fontColor=#0D0D0D;" vertex="1" parent="1">
                    <mxGeometry x="31" y="310" width="110" height="25" as="geometry"/>
                </mxCell>
                <mxCell id="23" value="message" style="swimlane;fontStyle=0;childLayout=stackLayout;horizontal=1;startSize=26;fillColor=none;horizontalStack=0;resizeParent=1;resizeParentMax=0;resizeLast=0;collapsible=1;marginBottom=0;strokeColor=#0D0D0D;fontColor=#0D0D0D;" vertex="1" parent="1">
                    <mxGeometry x="140" y="420" width="90" height="106" as="geometry"/>
                </mxCell>
                <mxCell id="24" value="id 12" style="text;strokeColor=none;fillColor=none;align=left;verticalAlign=top;spacingLeft=4;spacingRight=4;overflow=hidden;rotatable=0;points=[[0,0.5],[1,0.5]];portConstraint=eastwest;fontColor=#0D0D0D;" vertex="1" parent="23">
                    <mxGeometry y="26" width="90" height="26" as="geometry"/>
                </mxCell>
                <mxCell id="25" value="key1  value1" style="text;strokeColor=none;fillColor=none;align=left;verticalAlign=top;spacingLeft=4;spacingRight=4;overflow=hidden;rotatable=0;points=[[0,0.5],[1,0.5]];portConstraint=eastwest;fontColor=#0D0D0D;" vertex="1" parent="23">
                    <mxGeometry y="52" width="90" height="28" as="geometry"/>
                </mxCell>
                <mxCell id="26" value="key2 value2" style="text;strokeColor=none;fillColor=none;align=left;verticalAlign=top;spacingLeft=4;spacingRight=4;overflow=hidden;rotatable=0;points=[[0,0.5],[1,0.5]];portConstraint=eastwest;fontColor=#0D0D0D;" vertex="1" parent="23">
                    <mxGeometry y="80" width="90" height="26" as="geometry"/>
                </mxCell>
                <mxCell id="28" value="" style="endArrow=classic;html=1;strokeColor=#0D0D0D;fontColor=#0D0D0D;exitX=0.5;exitY=1;exitDx=0;exitDy=0;entryX=0.5;entryY=0;entryDx=0;entryDy=0;" edge="1" parent="1" source="14" target="23">
                    <mxGeometry width="50" height="50" relative="1" as="geometry">
                        <mxPoint x="300" y="390" as="sourcePoint"/>
                        <mxPoint x="350" y="340" as="targetPoint"/>
                    </mxGeometry>
                </mxCell>
                <mxCell id="29" value="消息是由键值对组成的结构化数据" style="text;html=1;strokeColor=none;fillColor=none;align=center;verticalAlign=middle;whiteSpace=wrap;rounded=0;fontColor=#0D0D0D;" vertex="1" parent="1">
                    <mxGeometry x="235" y="464.5" width="100" height="17" as="geometry"/>
                </mxCell>
                <mxCell id="31" value="Stream 名称" style="text;html=1;strokeColor=none;fillColor=none;align=center;verticalAlign=middle;whiteSpace=wrap;rounded=0;fontColor=#0D0D0D;" vertex="1" parent="1">
                    <mxGeometry x="51" y="340" width="70" height="10" as="geometry"/>
                </mxCell>
                <mxCell id="34" value="消费者(组)2&lt;br&gt;last_deliver_id: 11" style="shape=ext;double=1;rounded=1;whiteSpace=wrap;html=1;strokeColor=#0D0D0D;fillColor=none;fontColor=#0D0D0D;" vertex="1" parent="1">
                    <mxGeometry x="175" y="190" width="135" height="50" as="geometry"/>
                </mxCell>
                <mxCell id="35" value="" style="endArrow=classic;html=1;strokeColor=#0D0D0D;fontColor=#0D0D0D;exitX=0.44;exitY=0.986;exitDx=0;exitDy=0;exitPerimeter=0;entryX=0.5;entryY=0;entryDx=0;entryDy=0;" edge="1" parent="1" source="34" target="15">
                    <mxGeometry width="50" height="50" relative="1" as="geometry">
                        <mxPoint x="300" y="390" as="sourcePoint"/>
                        <mxPoint x="350" y="340" as="targetPoint"/>
                    </mxGeometry>
                </mxCell>
                <mxCell id="36" value="消费者(组)1&lt;br&gt;last_deliver_id: 7" style="shape=ext;double=1;rounded=1;whiteSpace=wrap;html=1;strokeColor=#0D0D0D;fillColor=none;fontColor=#0D0D0D;" vertex="1" parent="1">
                    <mxGeometry x="367.5" y="190" width="135" height="50" as="geometry"/>
                </mxCell>
                <mxCell id="37" value="" style="endArrow=classic;html=1;strokeColor=#0D0D0D;fontColor=#0D0D0D;exitX=0.5;exitY=1;exitDx=0;exitDy=0;entryX=0.5;entryY=0;entryDx=0;entryDy=0;" edge="1" parent="1" source="36">
                    <mxGeometry width="50" height="50" relative="1" as="geometry">
                        <mxPoint x="434.5000000000001" y="229.99999999999994" as="sourcePoint"/>
                        <mxPoint x="435.1" y="320.7" as="targetPoint"/>
                    </mxGeometry>
                </mxCell>
                <mxCell id="48" value="consumer1&lt;br&gt;pending_ids[]" style="rounded=1;whiteSpace=wrap;html=1;strokeColor=#0D0D0D;fillColor=none;fontColor=#0D0D0D;" vertex="1" parent="1">
                    <mxGeometry x="560" y="140" width="120" height="60" as="geometry"/>
                </mxCell>
                <mxCell id="49" value="consumer2&lt;br&gt;pending_ids[]" style="rounded=1;whiteSpace=wrap;html=1;strokeColor=#0D0D0D;fillColor=none;fontColor=#0D0D0D;" vertex="1" parent="1">
                    <mxGeometry x="560" y="230" width="120" height="60" as="geometry"/>
                </mxCell>
                <mxCell id="50" value="" style="shape=curlyBracket;whiteSpace=wrap;html=1;rounded=1;strokeColor=#0D0D0D;fillColor=none;fontColor=#0D0D0D;" vertex="1" parent="1">
                    <mxGeometry x="520" y="155" width="20" height="120" as="geometry"/>
                </mxCell>
                <mxCell id="51" value="ID" style="swimlane;fontStyle=0;childLayout=stackLayout;horizontal=1;startSize=26;fillColor=none;horizontalStack=0;resizeParent=1;resizeParentMax=0;resizeLast=0;collapsible=1;marginBottom=0;strokeColor=#0D0D0D;fontColor=#0D0D0D;" vertex="1" parent="1">
                    <mxGeometry x="540" y="447" width="190" height="52" as="geometry"/>
                </mxCell>
                <mxCell id="52" value="timestamp - sequence_number" style="text;strokeColor=none;fillColor=none;align=left;verticalAlign=top;spacingLeft=4;spacingRight=4;overflow=hidden;rotatable=0;points=[[0,0.5],[1,0.5]];portConstraint=eastwest;fontColor=#0D0D0D;" vertex="1" parent="51">
                    <mxGeometry y="26" width="190" height="26" as="geometry"/>
                </mxCell>
                <mxCell id="55" value="" style="endArrow=classic;html=1;strokeColor=#0D0D0D;fontColor=#0D0D0D;entryX=0.5;entryY=0;entryDx=0;entryDy=0;" edge="1" parent="1" source="10" target="51">
                    <mxGeometry width="50" height="50" relative="1" as="geometry">
                        <mxPoint x="300" y="390" as="sourcePoint"/>
                        <mxPoint x="350" y="340" as="targetPoint"/>
                    </mxGeometry>
                </mxCell>
                <mxCell id="56" value="消息ID是由毫秒时间戳 加 一个递增序号组成的" style="text;html=1;strokeColor=none;fillColor=none;align=center;verticalAlign=middle;whiteSpace=wrap;rounded=0;fontColor=#0D0D0D;" vertex="1" parent="1">
                    <mxGeometry x="570" y="516" width="130" height="10" as="geometry"/>
                </mxCell>
            </root>
        </mxGraphModel>
    </diagram>
</mxfile>